<svg width="104" height="19" viewBox="0 0 104 19" fill="none" xmlns="http://www.w3.org/2000/svg">
<path d="M7.07281 0.912C9.42481 0.912 11.2648 1.632 12.5928 3.072C13.9208 4.496 14.5848 6.552 14.5848 9.24C14.5848 11.144 14.2248 12.776 13.5048 14.136C12.8008 15.496 11.8008 16.528 10.5048 17.232C9.20881 17.936 7.71281 18.288 6.01681 18.288C5.12081 18.288 4.26481 18.192 3.44881 18C2.63281 17.792 1.93681 17.504 1.36081 17.136L2.80081 14.28C3.61681 14.84 4.66481 15.12 5.94481 15.12C7.36881 15.12 8.49681 14.704 9.32881 13.872C10.1608 13.024 10.6088 11.808 10.6728 10.224C9.66481 11.232 8.27281 11.736 6.49681 11.736C5.42481 11.736 4.44881 11.52 3.56881 11.088C2.68881 10.656 1.99281 10.048 1.48081 9.264C0.968811 8.464 0.712811 7.544 0.712811 6.504C0.712811 5.384 0.992811 4.4 1.55281 3.552C2.11281 2.704 2.87281 2.056 3.83281 1.608C4.80881 1.144 5.88881 0.912 7.07281 0.912ZM7.36081 8.832C8.20881 8.832 8.89681 8.6 9.42481 8.136C9.96881 7.656 10.2408 7.048 10.2408 6.312C10.2408 5.576 9.97681 4.976 9.44881 4.512C8.93681 4.048 8.22481 3.816 7.31281 3.816C6.48081 3.816 5.80081 4.04 5.27281 4.488C4.76081 4.936 4.50481 5.544 4.50481 6.312C4.50481 7.08 4.76081 7.696 5.27281 8.16C5.80081 8.608 6.49681 8.832 7.36081 8.832ZM31.5509 0.912C33.9029 0.912 35.7429 1.632 37.0709 3.072C38.3989 4.496 39.0629 6.552 39.0629 9.24C39.0629 11.144 38.7029 12.776 37.9829 14.136C37.2789 15.496 36.2789 16.528 34.9829 17.232C33.6869 17.936 32.1909 18.288 30.4949 18.288C29.5989 18.288 28.7429 18.192 27.9269 18C27.1109 17.792 26.4149 17.504 25.8389 17.136L27.2789 14.28C28.0949 14.84 29.1429 15.12 30.4229 15.12C31.8469 15.12 32.9749 14.704 33.8069 13.872C34.6389 13.024 35.0869 11.808 35.1509 10.224C34.1429 11.232 32.7509 11.736 30.9749 11.736C29.9029 11.736 28.9269 11.52 28.0469 11.088C27.1669 10.656 26.4709 10.048 25.9589 9.264C25.4469 8.464 25.1909 7.544 25.1909 6.504C25.1909 5.384 25.4709 4.4 26.0309 3.552C26.5909 2.704 27.3509 2.056 28.3109 1.608C29.2869 1.144 30.3669 0.912 31.5509 0.912ZM31.8389 8.832C32.6869 8.832 33.3749 8.6 33.9029 8.136C34.4469 7.656 34.7189 7.048 34.7189 6.312C34.7189 5.576 34.4549 4.976 33.9269 4.512C33.4149 4.048 32.7029 3.816 31.7909 3.816C30.9589 3.816 30.2789 4.04 29.7509 4.488C29.2389 4.936 28.9829 5.544 28.9829 6.312C28.9829 7.08 29.2389 7.696 29.7509 8.16C30.2789 8.608 30.9749 8.832 31.8389 8.832ZM49.3282 18.288C47.9362 18.288 46.6962 17.944 45.6082 17.256C44.5202 16.568 43.6642 15.576 43.0402 14.28C42.4322 12.968 42.1282 11.408 42.1282 9.6C42.1282 7.792 42.4322 6.24 43.0402 4.944C43.6642 3.632 44.5202 2.632 45.6082 1.944C46.6962 1.256 47.9362 0.912 49.3282 0.912C50.7202 0.912 51.9602 1.256 53.0482 1.944C54.1362 2.632 54.9842 3.632 55.5922 4.944C56.2162 6.24 56.5282 7.792 56.5282 9.6C56.5282 11.408 56.2162 12.968 55.5922 14.28C54.9842 15.576 54.1362 16.568 53.0482 17.256C51.9602 17.944 50.7202 18.288 49.3282 18.288ZM49.3282 15C50.3522 15 51.1522 14.56 51.7282 13.68C52.3202 12.8 52.6162 11.44 52.6162 9.6C52.6162 7.76 52.3202 6.4 51.7282 5.52C51.1522 4.64 50.3522 4.2 49.3282 4.2C48.3202 4.2 47.5202 4.64 46.9282 5.52C46.3522 6.4 46.0642 7.76 46.0642 9.6C46.0642 11.44 46.3522 12.8 46.9282 13.68C47.5202 14.56 48.3202 15 49.3282 15ZM66.8172 18.288C65.4252 18.288 64.1852 17.944 63.0972 17.256C62.0092 16.568 61.1532 15.576 60.5292 14.28C59.9212 12.968 59.6172 11.408 59.6172 9.6C59.6172 7.792 59.9212 6.24 60.5292 4.944C61.1532 3.632 62.0092 2.632 63.0972 1.944C64.1852 1.256 65.4252 0.912 66.8172 0.912C68.2092 0.912 69.4492 1.256 70.5372 1.944C71.6252 2.632 72.4732 3.632 73.0812 4.944C73.7052 6.24 74.0172 7.792 74.0172 9.6C74.0172 11.408 73.7052 12.968 73.0812 14.28C72.4732 15.576 71.6252 16.568 70.5372 17.256C69.4492 17.944 68.2092 18.288 66.8172 18.288ZM66.8172 15C67.8412 15 68.6412 14.56 69.2172 13.68C69.8092 12.8 70.1052 11.44 70.1052 9.6C70.1052 7.76 69.8092 6.4 69.2172 5.52C68.6412 4.64 67.8412 4.2 66.8172 4.2C65.8092 4.2 65.0092 4.64 64.4172 5.52C63.8412 6.4 63.5532 7.76 63.5532 9.6C63.5532 11.44 63.8412 12.8 64.4172 13.68C65.0092 14.56 65.8092 15 66.8172 15ZM91.1272 12.504V13.848H96.3112V15.84H91.1272V18H87.2152V15.84H84.8872V13.848H87.2152V1.2H94.4872C96.7752 1.2 98.5592 1.68 99.8392 2.64C101.135 3.6 101.783 5.008 101.783 6.864C101.783 8.704 101.135 10.104 99.8392 11.064C98.5592 12.024 96.7752 12.504 94.4872 12.504H91.1272ZM97.8472 6.888C97.8472 6.072 97.5512 5.448 96.9592 5.016C96.3832 4.584 95.5512 4.368 94.4632 4.368H91.1272V9.456H94.4632C95.5512 9.456 96.3832 9.24 96.9592 8.808C97.5512 8.36 97.8472 7.72 97.8472 6.888Z" fill="black"/>
<path d="M0.232811 10.272H103.991V11.472H0.232811V10.272Z" fill="black"/>
</svg>
